<svg width="127" height="31" viewBox="0 0 127 31" fill="none" xmlns="http://www.w3.org/2000/svg">
<path d="M20.28 10.5601C22.3867 10.5601 24.3067 11.0001 26.04 11.8801C27.7733 12.7335 29.1333 13.8935 30.12 15.3601C31.1333 16.8268 31.64 18.4001 31.64 20.0801C31.64 22.2668 30.9467 24.1735 29.56 25.8001C28.1733 27.4268 26.2933 28.6668 23.92 29.5201C21.5467 30.3735 18.8933 30.8001 15.96 30.8001C12.9733 30.8001 10.3067 30.2135 7.96 29.0401C5.64 27.8401 3.82667 26.1868 2.52 24.0801C1.24 21.9735 0.6 19.5735 0.6 16.8801C0.6 11.5201 2.08 7.53348 5.04 4.92015C8.02667 2.28014 12.04 0.960144 17.08 0.960144C23.2133 0.960144 28.0533 2.50681 31.6 5.60015C30 7.30681 28.5333 9.18681 27.2 11.2401C26.1333 10.4401 24.6267 9.80015 22.68 9.32015C20.76 8.81348 19.04 8.56015 17.52 8.56015C15.2 8.56015 13.2533 9.14681 11.68 10.3201C10.1067 11.4668 9.14667 13.1201 8.8 15.2801C8.77333 15.4135 8.76 15.6001 8.76 15.8401C10.04 13.9735 11.72 12.6268 13.8 11.8001C15.9067 10.9735 18.0667 10.5601 20.28 10.5601ZM16.36 23.2001C17.3733 23.2001 18.32 23.0668 19.2 22.8001C20.08 22.5068 20.7733 22.1201 21.28 21.6401C21.7867 21.1335 22.04 20.6001 22.04 20.0401C22.04 19.1601 21.48 18.4135 20.36 17.8001C19.2667 17.1601 17.9333 16.8401 16.36 16.8401C14.7867 16.8401 13.44 17.1601 12.32 17.8001C11.2267 18.4135 10.68 19.1601 10.68 20.0401C10.68 20.6001 10.9333 21.1335 11.44 21.6401C11.9467 22.1201 12.64 22.5068 13.52 22.8001C14.4 23.0668 15.3467 23.2001 16.36 23.2001ZM50.8178 30.8001C45.0845 30.8001 40.8578 29.4801 38.1378 26.8401C35.4178 24.2001 34.0578 20.5335 34.0578 15.8401C34.0578 11.1735 35.4178 7.53348 38.1378 4.92015C40.8845 2.28014 45.1111 0.960144 50.8178 0.960144C56.5245 0.960144 60.7378 2.28014 63.4578 4.92015C66.1778 7.53348 67.5378 11.1735 67.5378 15.8401C67.5378 20.5335 66.1778 24.2001 63.4578 26.8401C60.7378 29.4801 56.5245 30.8001 50.8178 30.8001ZM50.8578 23.8001C53.3111 23.8001 55.0978 23.0535 56.2178 21.5601C57.3378 20.0401 57.8978 18.1335 57.8978 15.8401C57.8978 13.5735 57.3378 11.6935 56.2178 10.2001C55.0978 8.68015 53.3111 7.92015 50.8578 7.92015C48.3245 7.92015 46.4845 8.68015 45.3378 10.2001C44.2178 11.6935 43.6578 13.5735 43.6578 15.8401C43.6578 18.1068 44.2178 20.0001 45.3378 21.5201C46.4845 23.0401 48.3245 23.8001 50.8578 23.8001ZM86.6975 30.8001C80.9642 30.8001 76.7375 29.4801 74.0175 26.8401C71.2975 24.2001 69.9375 20.5335 69.9375 15.8401C69.9375 11.1735 71.2975 7.53348 74.0175 4.92015C76.7642 2.28014 80.9908 0.960144 86.6975 0.960144C92.4042 0.960144 96.6175 2.28014 99.3375 4.92015C102.058 7.53348 103.418 11.1735 103.418 15.8401C103.418 20.5335 102.058 24.2001 99.3375 26.8401C96.6175 29.4801 92.4042 30.8001 86.6975 30.8001ZM86.7375 23.8001C89.1908 23.8001 90.9775 23.0535 92.0975 21.5601C93.2175 20.0401 93.7775 18.1335 93.7775 15.8401C93.7775 13.5735 93.2175 11.6935 92.0975 10.2001C90.9775 8.68015 89.1908 7.92015 86.7375 7.92015C84.2042 7.92015 82.3642 8.68015 81.2175 10.2001C80.0975 11.6935 79.5375 13.5735 79.5375 15.8401C79.5375 18.1068 80.0975 20.0001 81.2175 21.5201C82.3642 23.0401 84.2042 23.8001 86.7375 23.8001Z" fill="black"/>
<path d="M119.577 12.8801H126.697V20.6801H119.577V27.8401H111.777V20.6801H104.617V12.8801H111.777V5.72014H119.577V12.8801Z" fill="#2B788B"/>
</svg>
