<svg width="173" height="112" viewBox="0 0 173 112" fill="none" xmlns="http://www.w3.org/2000/svg">
<rect x="0.0476074" width="172" height="112" rx="14" fill="#C3DCE3"/>
<path d="M61.2484 96V86.912H57.6644V84.8H67.4244V86.912H63.8404V96H61.2484ZM72.8455 96V94.32L72.6855 93.952V90.944C72.6855 90.4107 72.5202 89.9947 72.1895 89.696C71.8695 89.3973 71.3735 89.248 70.7015 89.248C70.2429 89.248 69.7895 89.3227 69.3415 89.472C68.9042 89.6107 68.5309 89.8027 68.2215 90.048L67.3255 88.304C67.7949 87.9733 68.3602 87.7173 69.0215 87.536C69.6829 87.3547 70.3549 87.264 71.0375 87.264C72.3495 87.264 73.3682 87.5733 74.0935 88.192C74.8189 88.8107 75.1815 89.776 75.1815 91.088V96H72.8455ZM70.2215 96.128C69.5495 96.128 68.9735 96.016 68.4935 95.792C68.0135 95.5573 67.6455 95.2427 67.3895 94.848C67.1335 94.4533 67.0055 94.0107 67.0055 93.52C67.0055 93.008 67.1282 92.56 67.3735 92.176C67.6295 91.792 68.0295 91.4933 68.5735 91.28C69.1175 91.056 69.8269 90.944 70.7015 90.944H72.9895V92.4H70.9735C70.3869 92.4 69.9815 92.496 69.7575 92.688C69.5442 92.88 69.4375 93.12 69.4375 93.408C69.4375 93.728 69.5602 93.984 69.8055 94.176C70.0615 94.3573 70.4082 94.448 70.8455 94.448C71.2615 94.448 71.6349 94.352 71.9655 94.16C72.2962 93.9573 72.5362 93.664 72.6855 93.28L73.0695 94.432C72.8882 94.9867 72.5575 95.408 72.0775 95.696C71.5975 95.984 70.9789 96.128 70.2215 96.128ZM79.6965 96.128C78.9605 96.128 78.2512 96.0427 77.5685 95.872C76.8965 95.6907 76.3632 95.4667 75.9685 95.2L76.8005 93.408C77.1952 93.6533 77.6592 93.856 78.1925 94.016C78.7365 94.1653 79.2699 94.24 79.7925 94.24C80.3685 94.24 80.7739 94.1707 81.0085 94.032C81.2539 93.8933 81.3765 93.7013 81.3765 93.456C81.3765 93.2533 81.2805 93.104 81.0885 93.008C80.9072 92.9013 80.6619 92.8213 80.3525 92.768C80.0432 92.7147 79.7019 92.6613 79.3285 92.608C78.9659 92.5547 78.5979 92.4853 78.2245 92.4C77.8512 92.304 77.5099 92.1653 77.2005 91.984C76.8912 91.8027 76.6405 91.5573 76.4485 91.248C76.2672 90.9387 76.1765 90.5387 76.1765 90.048C76.1765 89.504 76.3312 89.024 76.6405 88.608C76.9605 88.192 77.4192 87.8667 78.0165 87.632C78.6139 87.3867 79.3285 87.264 80.1605 87.264C80.7472 87.264 81.3445 87.328 81.9525 87.456C82.5605 87.584 83.0672 87.7707 83.4725 88.016L82.6405 89.792C82.2245 89.5467 81.8032 89.3813 81.3765 89.296C80.9605 89.2 80.5552 89.152 80.1605 89.152C79.6059 89.152 79.2005 89.2267 78.9445 89.376C78.6885 89.5253 78.5605 89.7173 78.5605 89.952C78.5605 90.1653 78.6512 90.3253 78.8325 90.432C79.0245 90.5387 79.2752 90.624 79.5845 90.688C79.8939 90.752 80.2299 90.8107 80.5925 90.864C80.9659 90.9067 81.3392 90.976 81.7125 91.072C82.0859 91.168 82.4219 91.3067 82.7205 91.488C83.0299 91.6587 83.2805 91.8987 83.4725 92.208C83.6645 92.5067 83.7605 92.9013 83.7605 93.392C83.7605 93.9253 83.6005 94.4 83.2805 94.816C82.9605 95.2213 82.4965 95.5413 81.8885 95.776C81.2912 96.0107 80.5605 96.128 79.6965 96.128ZM86.7245 94.24L86.7885 91.2L90.8045 87.392H93.7805L89.9245 91.312L88.6285 92.368L86.7245 94.24ZM84.6605 96V84.128H87.1565V96H84.6605ZM91.0765 96L88.1645 92.384L89.7325 90.448L94.1005 96H91.0765ZM97.1978 96.128C96.4618 96.128 95.7525 96.0427 95.0698 95.872C94.3978 95.6907 93.8645 95.4667 93.4698 95.2L94.3018 93.408C94.6965 93.6533 95.1605 93.856 95.6938 94.016C96.2378 94.1653 96.7711 94.24 97.2938 94.24C97.8698 94.24 98.2751 94.1707 98.5098 94.032C98.7551 93.8933 98.8778 93.7013 98.8778 93.456C98.8778 93.2533 98.7818 93.104 98.5898 93.008C98.4085 92.9013 98.1631 92.8213 97.8538 92.768C97.5445 92.7147 97.2031 92.6613 96.8298 92.608C96.4671 92.5547 96.0991 92.4853 95.7258 92.4C95.3525 92.304 95.0111 92.1653 94.7018 91.984C94.3925 91.8027 94.1418 91.5573 93.9498 91.248C93.7685 90.9387 93.6778 90.5387 93.6778 90.048C93.6778 89.504 93.8325 89.024 94.1418 88.608C94.4618 88.192 94.9205 87.8667 95.5178 87.632C96.1151 87.3867 96.8298 87.264 97.6618 87.264C98.2485 87.264 98.8458 87.328 99.4538 87.456C100.062 87.584 100.568 87.7707 100.974 88.016L100.142 89.792C99.7258 89.5467 99.3045 89.3813 98.8778 89.296C98.4618 89.2 98.0565 89.152 97.6618 89.152C97.1071 89.152 96.7018 89.2267 96.4458 89.376C96.1898 89.5253 96.0618 89.7173 96.0618 89.952C96.0618 90.1653 96.1525 90.3253 96.3338 90.432C96.5258 90.5387 96.7765 90.624 97.0858 90.688C97.3951 90.752 97.7311 90.8107 98.0938 90.864C98.4671 90.9067 98.8405 90.976 99.2138 91.072C99.5871 91.168 99.9231 91.3067 100.222 91.488C100.531 91.6587 100.782 91.8987 100.974 92.208C101.166 92.5067 101.262 92.9013 101.262 93.392C101.262 93.9253 101.102 94.4 100.782 94.816C100.462 95.2213 99.9978 95.5413 99.3898 95.776C98.7925 96.0107 98.0618 96.128 97.1978 96.128ZM110.949 87.984L113.317 91.584L110.949 95.216H108.789L110.965 91.584L108.789 87.984H110.949ZM111.429 90.72V92.464H105.701V90.72H111.429Z" fill="#2B788B"/>
</svg>
