<svg width="130" height="113" viewBox="0 0 130 113" fill="none" xmlns="http://www.w3.org/2000/svg">
<rect x="0.952393" y="0.5" width="129" height="112" rx="14" fill="#F2D4DC"/>
<path d="M39.9604 96.692C39.0644 96.692 38.2057 96.5747 37.3844 96.34C36.5631 96.0947 35.9017 95.78 35.4004 95.396L36.2804 93.444C36.7604 93.7853 37.3257 94.068 37.9764 94.292C38.6377 94.5053 39.3044 94.612 39.9764 94.612C40.4884 94.612 40.8991 94.564 41.2084 94.468C41.5284 94.3613 41.7631 94.2173 41.9124 94.036C42.0617 93.8547 42.1364 93.6467 42.1364 93.412C42.1364 93.1133 42.0191 92.8787 41.7844 92.708C41.5497 92.5267 41.2404 92.3827 40.8564 92.276C40.4724 92.1587 40.0457 92.052 39.5764 91.956C39.1177 91.8493 38.6537 91.7213 38.1844 91.572C37.7257 91.4227 37.3044 91.2307 36.9204 90.996C36.5364 90.7613 36.2217 90.452 35.9764 90.068C35.7417 89.684 35.6244 89.1933 35.6244 88.596C35.6244 87.956 35.7951 87.3747 36.1364 86.852C36.4884 86.3187 37.0111 85.8973 37.7044 85.588C38.4084 85.268 39.2884 85.108 40.3444 85.108C41.0484 85.108 41.7417 85.1933 42.4244 85.364C43.1071 85.524 43.7097 85.7693 44.2324 86.1L43.4324 88.068C42.9097 87.7693 42.3871 87.5507 41.8644 87.412C41.3417 87.2627 40.8297 87.188 40.3284 87.188C39.8271 87.188 39.4164 87.2467 39.0964 87.364C38.7764 87.4813 38.5471 87.636 38.4084 87.828C38.2697 88.0093 38.2004 88.2227 38.2004 88.468C38.2004 88.756 38.3177 88.9907 38.5524 89.172C38.7871 89.3427 39.0964 89.4813 39.4804 89.588C39.8644 89.6947 40.2857 89.8013 40.7444 89.908C41.2137 90.0147 41.6777 90.1373 42.1364 90.276C42.6057 90.4147 43.0324 90.6013 43.4164 90.836C43.8004 91.0707 44.1097 91.38 44.3444 91.764C44.5897 92.148 44.7124 92.6333 44.7124 93.22C44.7124 93.8493 44.5364 94.4253 44.1844 94.948C43.8324 95.4707 43.3044 95.892 42.6004 96.212C41.9071 96.532 41.0271 96.692 39.9604 96.692ZM50.7555 96.628C50.0302 96.628 49.3955 96.468 48.8515 96.148C48.3075 95.828 47.8809 95.3427 47.5715 94.692C47.2729 94.0307 47.1235 93.1987 47.1235 92.196C47.1235 91.1827 47.2675 90.3507 47.5555 89.7C47.8435 89.0493 48.2595 88.564 48.8035 88.244C49.3475 87.924 49.9982 87.764 50.7555 87.764C51.5662 87.764 52.2915 87.9507 52.9315 88.324C53.5822 88.6867 54.0942 89.1987 54.4675 89.86C54.8515 90.5213 55.0435 91.3 55.0435 92.196C55.0435 93.1027 54.8515 93.8867 54.4675 94.548C54.0942 95.2093 53.5822 95.7213 52.9315 96.084C52.2915 96.4467 51.5662 96.628 50.7555 96.628ZM45.6675 99.604V87.892H48.0515V89.652L48.0035 92.212L48.1635 94.756V99.604H45.6675ZM50.3235 94.58C50.7395 94.58 51.1075 94.484 51.4275 94.292C51.7582 94.1 52.0195 93.828 52.2115 93.476C52.4142 93.1133 52.5155 92.6867 52.5155 92.196C52.5155 91.6947 52.4142 91.268 52.2115 90.916C52.0195 90.564 51.7582 90.292 51.4275 90.1C51.1075 89.908 50.7395 89.812 50.3235 89.812C49.9075 89.812 49.5342 89.908 49.2035 90.1C48.8729 90.292 48.6115 90.564 48.4195 90.916C48.2275 91.268 48.1315 91.6947 48.1315 92.196C48.1315 92.6867 48.2275 93.1133 48.4195 93.476C48.6115 93.828 48.8729 94.1 49.2035 94.292C49.5342 94.484 49.9075 94.58 50.3235 94.58ZM56.0744 96.5V87.892H58.4584V90.324L58.1224 89.62C58.3784 89.012 58.7891 88.5533 59.3544 88.244C59.9197 87.924 60.6077 87.764 61.4184 87.764V90.068C61.3117 90.0573 61.2157 90.052 61.1304 90.052C61.0451 90.0413 60.9544 90.036 60.8584 90.036C60.1757 90.036 59.6211 90.2333 59.1944 90.628C58.7784 91.012 58.5704 91.6147 58.5704 92.436V96.5H56.0744ZM62.2781 96.5V87.892H64.7741V96.5H62.2781ZM63.5261 86.692C63.0675 86.692 62.6941 86.5587 62.4061 86.292C62.1181 86.0253 61.9741 85.6947 61.9741 85.3C61.9741 84.9053 62.1181 84.5747 62.4061 84.308C62.6941 84.0413 63.0675 83.908 63.5261 83.908C63.9848 83.908 64.3581 84.036 64.6461 84.292C64.9341 84.5373 65.0781 84.8573 65.0781 85.252C65.0781 85.668 64.9341 86.0147 64.6461 86.292C64.3688 86.5587 63.9955 86.692 63.5261 86.692ZM71.6826 87.764C72.3653 87.764 72.9733 87.9027 73.5066 88.18C74.0506 88.4467 74.4773 88.8627 74.7866 89.428C75.096 89.9827 75.2506 90.6973 75.2506 91.572V96.5H72.7546V91.956C72.7546 91.2627 72.6 90.7507 72.2906 90.42C71.992 90.0893 71.5653 89.924 71.0106 89.924C70.616 89.924 70.2586 90.0093 69.9386 90.18C69.6293 90.34 69.384 90.5907 69.2026 90.932C69.032 91.2733 68.9466 91.7107 68.9466 92.244V96.5H66.4506V87.892H68.8346V90.276L68.3866 89.556C68.696 88.98 69.1386 88.5373 69.7146 88.228C70.2906 87.9187 70.9466 87.764 71.6826 87.764ZM80.3931 96.628C79.3798 96.628 78.5905 96.372 78.0251 95.86C77.4598 95.3373 77.1771 94.564 77.1771 93.54V85.988H79.6731V93.508C79.6731 93.8707 79.7691 94.1533 79.9611 94.356C80.1531 94.548 80.4145 94.644 80.7451 94.644C81.1398 94.644 81.4758 94.5373 81.7531 94.324L82.4251 96.084C82.1691 96.2653 81.8598 96.404 81.4971 96.5C81.1451 96.5853 80.7771 96.628 80.3931 96.628ZM75.8491 90.004V88.084H81.8171V90.004H75.8491ZM91.9735 88.484L94.3415 92.084L91.9735 95.716H89.8135L91.9895 92.084L89.8135 88.484H91.9735ZM92.4535 91.22V92.964H86.7255V91.22H92.4535Z" fill="#945069"/>
</svg>
